# xmcd
#
# Track frame offsets:
#	150
#	43020
#	86777
#	117667
#	192777
#	224955
#	252105
#	294690
#	325742
#
# Disc length: 4723 seconds
#
# Revision: 25
# Processed by: cddbd v1.5.2PL0 Copyright (c) Steve Scherf et al.
# Submitted via: audiograbber 1.82.01
#
DISCID=90127109
DTITLE=Jacqueline du Pre - The Very Best Of [CD2)
DYEAR=1967
DGENRE=Classical
TTITLE0=Jacqueline du Pre - Haydn: Cello Concerto N°1 in C Hob.VIIb-1 - I. Mode
TTITLE0=rato
TTITLE1=Jacqueline du Pre - Haydn: Cello Concerto N°1 in C Hob.VIIb-1 - II. Ada
TTITLE1=gio
TTITLE2=Jacqueline du Pre - Haydn: Cello Concerto N°1 in C Hob.VIIb-1 - III. Al
TTITLE2=legro molto
TTITLE3=Jacqueline du Pre - Haydn: Cello Concerto N°1 in C Hob.VIIb-1 - I. Alle
TTITLE3=gro moderato
TTITLE4=Jacqueline du Pre - Haydn: Cello Concerto N°1 in C Hob.VIIb-1 - II. Ada
TTITLE4=gio
TTITLE5=Jacqueline du Pre - Haydn: Cello Concerto N°1 in C Hob.VIIb-1 - III. Ro
TTITLE5=ndo (Allegro)
TTITLE6=Jacqueline du Pre - Boccherini: Cello Concerto in B flat - I. Allegro m
TTITLE6=oderato
TTITLE7=Jacqueline du Pre - Boccherini: Cello Concerto in B flat - II. Adagio n
TTITLE7=on troppo
TTITLE8=Jacqueline du Pre - Boccherini: Cello Concerto in B flat - III. Rondo (
TTITLE8=Allegro)
EXTD=Warner\n7243  5 86597 2\nrecorded 1967\ndigital  YEAR: 1999\nCD 2 v 3\n
EXTT0=English Chamber Orchestra/Daniel Barenboim
EXTT1=English Chamber Orchestra/Daniel Barenboim
EXTT2=English Chamber Orchestra/Daniel Barenboim
EXTT3=London Symphony Orchestra/Sir John Barbirolli
EXTT4=London Symphony Orchestra/Sir John Barbirolli
EXTT5=London Symphony Orchestra/Sir John Barbirolli
EXTT6=Arr.: Grützmacher\nEnglish Chamber Orchestra/Daniel Barenboim
EXTT7=Arr.: Grützmacher\nEnglish Chamber Orchestra/Daniel Barenboim
EXTT8=Arr.: Grützmacher\nEnglish Chamber Orchestra/Daniel Barenboim
PLAYORDER=
